# 3ds Max Wavefront OBJ Exporter v0.97b - (c)2007 guruware
# File Created: 24.11.2018 00:14:14

mtllib brick.mtl

#
# object Box001
#

v  -13.5797 0.0000 9.1390
v  -13.5797 0.0000 -0.0000
v  13.5797 0.0000 -0.0000
v  13.5797 0.0000 9.1390
v  -13.5797 11.5595 9.1390
v  13.5797 11.5595 9.1390
v  13.5797 11.5595 -0.0000
v  -13.5797 11.5595 -0.0000
v  13.5797 0.0000 -9.1390
v  -13.5797 0.0000 -9.1390
v  -13.5797 11.5595 -9.1390
v  13.5797 11.5595 -9.1390
v  13.5797 1.1509 1.1810
v  13.5797 1.1509 7.9580
v  13.5797 10.4086 1.1810
v  13.5797 10.4086 7.9580
v  -13.5797 1.1509 -1.1810
v  -13.5797 1.1509 -7.9580
v  -13.5797 10.4086 -1.1810
v  -13.5797 10.4086 -7.9580
v  13.5797 1.1509 -7.9580
v  13.5797 1.1509 -1.1810
v  13.5797 10.4086 -7.9580
v  13.5797 10.4086 -1.1810
v  -13.5797 1.1509 7.9580
v  -13.5797 1.1509 1.1810
v  -13.5797 10.4086 7.9580
v  -13.5797 10.4086 1.1810
# 28 vertices

vn 0.0000 -1.0000 -0.0000
vn 0.0000 1.0000 -0.0000
vn 0.0000 0.0000 1.0000
vn 0.0000 0.0000 -1.0000
vn 1.0000 0.0000 -0.0000
vn -1.0000 0.0000 -0.0000
# 6 vertex normals

vt 1.0000 0.0000 -0.0000
vt 1.0000 0.5000 -0.0000
vt 0.0000 0.5000 -0.0000
vt 0.0000 0.0000 -0.0000
vt 0.0000 0.0000 1.0000
vt 1.0000 0.0000 1.0000
vt 1.0000 0.5000 1.0000
vt 0.0000 0.5000 1.0000
vt 0.0000 -0.0000 0.0000
vt 1.0000 -0.0000 0.0000
vt 1.0000 1.0000 0.0000
vt 0.0000 1.0000 0.0000
vt 0.0000 -0.0000 1.0000
vt 1.0000 -0.0000 1.0000
vt 1.0000 1.0000 1.0000
vt 0.0000 1.0000 1.0000
vt 1.0000 1.0000 -0.0000
vt 0.0000 1.0000 -0.0000
vt 0.5000 -0.0000 1.0000
vt 0.4354 0.0996 1.0000
vt 0.0646 0.0996 1.0000
vt 0.5000 1.0000 1.0000
vt 0.4354 0.9004 1.0000
vt 0.0646 0.9004 1.0000
vt 0.5000 -0.0000 0.0000
vt 0.4354 0.0996 0.0000
vt 0.0646 0.0996 0.0000
vt 0.5000 1.0000 0.0000
vt 0.4354 0.9004 0.0000
vt 0.0646 0.9004 0.0000
vt 0.9354 0.0996 1.0000
vt 0.5646 0.0996 1.0000
vt 0.9354 0.9004 1.0000
vt 0.5646 0.9004 1.0000
vt 0.9354 0.0996 0.0000
vt 0.5646 0.0996 0.0000
vt 0.9354 0.9004 0.0000
vt 0.5646 0.9004 0.0000
vt 1.0000 0.0996 0.9354
vt 1.0000 0.9004 0.9354
vt 0.0000 0.9004 0.9354
vt 0.0000 0.0996 0.9354
vt 1.0000 0.5646 0.0996
vt 1.0000 0.9354 0.0996
vt 0.0000 0.9354 0.0996
vt 0.0000 0.5646 0.0996
vt 0.0000 0.9004 0.5646
vt 0.0000 0.0996 0.5646
vt 1.0000 0.0996 0.5646
vt 1.0000 0.9004 0.5646
vt 0.0000 0.9354 0.9004
vt 0.0000 0.5646 0.9004
vt 1.0000 0.5646 0.9004
vt 1.0000 0.9354 0.9004
vt 1.0000 0.0996 0.0646
vt 1.0000 0.9004 0.0646
vt 0.0000 0.9004 0.0646
vt 0.0000 0.0996 0.0646
vt 0.0000 0.9004 0.4354
vt 0.0000 0.0996 0.4354
vt 1.0000 0.0996 0.4354
vt 1.0000 0.9004 0.4354
vt 0.0000 0.4354 0.0996
vt 0.0000 0.0646 0.0996
vt 1.0000 0.0646 0.0996
vt 1.0000 0.4354 0.0996
vt 1.0000 0.0646 0.9004
vt 1.0000 0.4354 0.9004
vt 0.0000 0.4354 0.9004
vt 0.0000 0.0646 0.9004
# 70 texture coords

g Box001
usemtl 01___Default
s 2
f 1/1/1 2/2/1 3/3/1 4/4/1 
s 4
f 5/5/2 6/6/2 7/7/2 8/8/2 
s 8
f 1/9/3 4/10/3 6/11/3 5/12/3 
s 32
f 9/13/4 10/14/4 11/15/4 12/16/4 
s 2
f 2/2/1 10/17/1 9/18/1 3/3/1 
s 4
f 7/7/2 12/15/2 11/16/2 8/8/2 
s off
f 4/13/5 3/19/5 13/20/5 14/21/5 
f 3/19/5 7/22/5 15/23/5 13/20/5 
f 7/22/5 6/16/5 16/24/5 15/23/5 
f 6/16/5 4/13/5 14/21/5 16/24/5 
f 10/9/6 2/25/6 17/26/6 18/27/6 
f 2/25/6 8/28/6 19/29/6 17/26/6 
f 8/28/6 11/12/6 20/30/6 19/29/6 
f 11/12/6 10/9/6 18/27/6 20/30/6 
f 3/19/5 9/14/5 21/31/5 22/32/5 
f 9/14/5 12/15/5 23/33/5 21/31/5 
f 12/15/5 7/22/5 24/34/5 23/33/5 
f 7/22/5 3/19/5 22/32/5 24/34/5 
f 2/25/6 1/10/6 25/35/6 26/36/6 
f 1/10/6 5/11/6 27/37/6 25/35/6 
f 5/11/6 8/28/6 28/38/6 27/37/6 
f 8/28/6 2/25/6 26/36/6 28/38/6 
s 1
f 21/39/3 23/40/3 20/41/3 18/42/3 
s 2
f 22/43/2 21/44/2 18/45/2 17/46/2 
s 1
f 24/47/4 22/48/4 17/49/4 19/50/4 
s 2
f 23/51/1 24/52/1 19/53/1 20/54/1 
s 1
f 25/55/4 27/56/4 16/57/4 14/58/4 
f 28/59/3 26/60/3 13/61/3 15/62/3 
s 2
f 26/63/2 25/64/2 14/65/2 13/66/2 
f 27/67/1 28/68/1 15/69/1 16/70/1 
# 30 polygons

