# 3ds Max Wavefront OBJ Exporter v0.97b - (c)2007 guruware
# File Created: 24.11.2018 17:16:14

mtllib sack.mtl

#
# object Box001
#

v  13.8529 -5.4557 -8.4355
v  14.6231 -13.1037 -7.1880
v  3.0636 -13.1037 -9.1759
v  3.0636 -5.4557 -10.5646
v  14.6231 -13.1037 0.9460
v  13.8529 -5.4557 2.1935
v  3.0636 -5.4557 3.7995
v  3.0636 -13.1037 2.6679
v  -9.0455 -18.5593 -4.9272
v  3.0636 -18.5593 -4.9272
v  3.0636 -18.5593 -1.3148
v  -9.0455 -18.5593 -1.3148
v  16.7002 -11.9979 -7.3485
v  15.7916 -4.9953 -8.4950
v  15.7916 -4.9953 2.2530
v  16.7002 -11.9979 1.1065
v  15.1726 18.2298 -4.9358
v  3.0636 18.2298 -4.9358
v  3.0636 18.2298 -1.3062
v  15.1726 18.2298 -1.3062
v  -10.5731 11.9979 -7.3485
v  -9.6644 4.9953 -8.4950
v  -9.6644 4.9953 2.2530
v  -10.5731 11.9979 1.1065
v  14.6231 12.8710 -7.2246
v  13.8529 5.3588 -8.4487
v  3.0636 5.3588 -10.5778
v  3.0636 12.8710 -8.2112
v  -8.4960 12.8710 0.9825
v  -7.7258 5.3588 2.2067
v  3.0636 5.3588 3.8127
v  3.0636 12.8710 2.1300
v  15.7916 4.9953 -8.4950
v  16.7002 11.9979 -7.3485
v  16.7002 11.9979 1.1065
v  15.7916 4.9953 2.2530
v  -9.6644 -4.9953 -8.4950
v  -10.5731 -11.9979 -7.3485
v  -10.5731 -11.9979 1.1065
v  -9.6644 -4.9953 2.2530
v  -7.7258 -5.4557 -8.4355
v  -8.4960 -13.1037 -7.1880
v  -8.4960 -13.1037 0.9460
v  -7.7258 -5.4557 2.1935
v  18.4874 -22.0302 -3.5054
v  18.9504 -21.6968 -3.5154
v  18.9504 -21.6968 -2.7266
v  18.4874 -22.0302 -2.7366
v  -12.3602 -22.0302 -2.7366
v  -12.8233 -21.6968 -2.7266
v  -12.8233 -21.6968 -3.5154
v  -12.3602 -22.0302 -3.5054
v  -11.9638 22.0848 -3.5072
v  -12.4269 21.8216 -3.5154
v  -12.4269 21.8216 -2.7266
v  -11.9638 22.0848 -2.7348
v  18.0909 22.0848 -2.7348
v  18.5540 21.8216 -2.7266
v  18.5540 21.8216 -3.5154
v  18.0909 22.0848 -3.5072
v  -8.4960 12.8710 -7.2246
v  -7.7258 5.3588 -8.4487
v  14.6231 12.8710 0.9825
v  13.8529 5.3588 2.2067
v  15.1726 -18.5593 -4.9272
v  -7.1763 0.0000 -8.7708
v  3.0636 -0.0000 -10.8998
v  13.3034 -0.0000 2.5288
v  3.0636 -0.0000 4.1347
v  15.1434 0.0000 -8.7708
v  15.1434 -0.0000 2.5288
v  17.3484 -16.9931 -1.2676
v  17.3484 -16.9931 -4.9744
v  -9.0163 0.0000 -8.7708
v  -9.0163 -0.0000 2.5288
v  -11.2213 16.9931 -1.2676
v  -11.2213 16.9931 -4.9744
v  13.3034 0.0000 -8.7708
v  -9.0455 18.2298 -4.9358
v  -7.1763 -0.0000 2.5288
v  17.3484 16.9931 -4.9744
v  17.3484 16.9931 -1.2676
v  -11.2213 -16.9931 -4.9744
v  -11.2213 -16.9931 -1.2676
v  15.1726 -18.5593 -1.3148
v  -9.0455 18.2298 -1.3062
v  17.5742 -19.1870 -3.6740
v  16.9250 -19.6543 -3.6599
v  17.5742 -19.1870 -2.5680
v  16.9250 -19.6543 -2.5821
v  -11.4471 -19.1870 -2.5680
v  -10.7979 -19.6543 -2.5821
v  -11.4471 -19.1870 -3.6740
v  -10.7979 -19.6543 -3.6599
v  -11.2876 19.1738 -3.6740
v  -10.6384 19.5428 -3.6625
v  -11.2876 19.1738 -2.5680
v  -10.6384 19.5428 -2.5795
v  17.4147 19.1738 -2.5680
v  16.7655 19.5428 -2.5795
v  17.4147 19.1738 -3.6740
v  16.7655 19.5428 -3.6625
v  18.9810 -20.5308 -4.3855
v  17.4964 -21.5994 -4.3533
v  18.9810 -20.5308 -1.8565
v  17.4964 -21.5994 -1.8887
v  -12.8538 -20.5308 -1.8565
v  -11.3693 -21.5994 -1.8887
v  -12.8538 -20.5308 -4.3855
v  -11.3693 -21.5994 -4.3533
v  -12.5348 20.6832 -4.3855
v  -11.0503 21.5270 -4.3592
v  -12.5348 20.6832 -1.8565
v  -11.0503 21.5270 -1.8828
v  18.6619 20.6832 -1.8565
v  17.1774 21.5270 -1.8828
v  18.6619 20.6832 -4.3855
v  17.1774 21.5270 -4.3592
# 118 vertices

vn 0.1055 -0.0637 -0.9924
vn 0.0571 -0.2030 -0.9775
vn 0.0000 -0.2697 -0.9629
vn 0.0000 -0.0727 -0.9974
vn 0.0573 -0.1986 0.9784
vn 0.0414 -0.0661 0.9970
vn 0.0000 -0.0630 0.9980
vn -0.0000 -0.2523 0.9677
vn 0.0000 -0.8063 -0.5916
vn -0.0000 -0.8325 -0.5540
vn 0.0000 -0.8274 0.5617
vn -0.0469 -0.6599 0.7499
vn 0.9901 0.1405 0.0000
vn 0.9901 0.1405 -0.0000
vn 0.0000 0.8086 -0.5884
vn 0.0000 0.8148 -0.5798
vn -0.0000 0.8182 0.5749
vn 0.0410 0.6539 0.7555
vn -0.9901 -0.1405 0.0000
vn 0.0284 0.1951 -0.9804
vn 0.0882 0.0799 -0.9929
vn 0.0000 0.1120 -0.9937
vn -0.0000 0.2553 -0.9669
vn -0.0420 0.1963 0.9796
vn -0.0365 0.0700 0.9969
vn -0.0000 0.0856 0.9963
vn 0.0000 0.2457 0.9693
vn 0.9901 -0.1405 0.0000
vn 0.9901 -0.1405 -0.0000
vn -0.9901 0.1405 -0.0000
vn -0.0029 -0.0662 -0.9978
vn 0.0388 -0.1682 -0.9850
vn 0.0651 -0.1973 -0.9782
vn -0.0009 -0.0701 -0.9975
vn -0.0388 -0.1682 -0.9850
vn 0.0029 -0.0662 -0.9978
vn 0.0009 -0.0701 -0.9975
vn -0.0651 -0.1973 -0.9782
vn 0.0388 -0.1682 0.9850
vn -0.0029 -0.0662 0.9978
vn 0.0029 -0.0662 0.9978
vn -0.0388 -0.1682 0.9850
vn -0.0573 -0.1986 0.9784
vn -0.0414 -0.0661 0.9970
vn 0.5497 -0.8354 0.0000
vn -0.5497 -0.8354 0.0000
vn -0.5497 -0.8354 -0.0000
vn -0.4610 0.8874 -0.0000
vn 0.4610 0.8874 -0.0000
vn 0.0336 0.1739 -0.9842
vn -0.0019 0.0670 -0.9978
vn -0.0007 0.0690 -0.9976
vn 0.0510 0.1955 -0.9794
vn 0.0019 0.0670 -0.9978
vn -0.0336 0.1739 -0.9842
vn -0.0510 0.1955 -0.9794
vn 0.0007 0.0690 -0.9976
vn -0.0336 0.1739 0.9842
vn 0.0019 0.0670 0.9978
vn -0.0019 0.0670 0.9978
vn 0.0336 0.1739 0.9842
vn 0.0420 0.1963 0.9796
vn 0.0365 0.0700 0.9969
vn -0.1055 -0.0637 -0.9924
vn -0.1122 -0.0005 -0.9937
vn 0.0000 -0.0004 -1.0000
vn 0.0455 -0.0005 0.9990
vn 0.0000 -0.0004 1.0000
vn 1.0000 0.0000 -0.0000
vn 1.0000 -0.0000 0.0000
vn -1.0000 -0.0000 0.0000
vn -1.0000 0.0000 -0.0000
vn -0.9901 -0.1405 -0.0000
vn 0.1122 -0.0005 -0.9937
vn -0.0284 0.1951 -0.9804
vn -0.0455 -0.0005 0.9990
vn -0.9901 0.1405 0.0000
vn 0.1275 -0.2403 -0.9623
vn 0.1401 -0.2308 -0.9628
vn -0.0020 -0.0004 -1.0000
vn 0.0020 -0.0004 -1.0000
vn -0.1401 -0.2308 -0.9628
vn -0.1275 -0.2403 -0.9623
vn -0.0020 -0.0004 1.0000
vn 0.0469 -0.6599 0.7499
vn 0.1275 -0.2403 0.9623
vn -0.1275 -0.2403 0.9623
vn 0.0020 -0.0004 1.0000
vn 0.1156 0.2411 -0.9636
vn 0.1049 0.2486 -0.9629
vn -0.1049 0.2486 -0.9629
vn -0.1156 0.2411 -0.9636
vn -0.0410 0.6539 0.7555
vn -0.1049 0.2486 0.9629
vn 0.1049 0.2486 0.9629
vn 0.1973 -0.3172 -0.9276
vn 0.9937 0.1119 -0.0000
vn 0.1973 -0.3172 0.9276
vn -0.4960 -0.8683 0.0000
vn -0.1973 -0.3172 0.9276
vn -0.9937 0.1119 -0.0000
vn -0.1973 -0.3172 -0.9276
vn 0.4960 -0.8683 0.0000
vn -0.1652 0.3358 -0.9273
vn -0.9994 -0.0332 -0.0000
vn -0.1652 0.3358 0.9273
vn 0.6018 0.7987 0.0000
vn 0.1652 0.3358 0.9273
vn 0.9994 -0.0332 -0.0000
vn 0.1652 0.3358 -0.9273
vn -0.6018 0.7987 -0.0000
vn -0.1266 0.1742 -0.9765
vn 0.6577 0.7533 -0.0000
vn -0.1266 0.1742 0.9765
vn -0.9520 -0.3060 0.0000
vn 0.1266 0.1742 0.9765
vn -0.6577 0.7533 -0.0000
vn 0.1266 0.1742 -0.9765
vn 0.9520 -0.3060 0.0000
vn 0.1071 -0.1873 -0.9764
vn -0.7418 -0.6706 -0.0000
vn 0.1071 -0.1873 0.9764
vn 0.9752 0.2215 0.0000
vn -0.1071 -0.1873 0.9764
vn 0.7418 -0.6706 -0.0000
vn -0.1071 -0.1873 -0.9764
vn -0.9752 0.2215 0.0000
vn 0.2592 -0.4102 -0.8744
vn 0.9996 -0.0286 0.0000
vn 0.2592 -0.4102 0.8744
vn -0.3693 -0.9293 0.0000
vn -0.2592 -0.4102 0.8744
vn -0.9996 -0.0286 0.0000
vn -0.2592 -0.4102 -0.8744
vn 0.3693 -0.9293 0.0000
vn -0.2172 0.4348 -0.8739
vn -0.9947 0.1032 -0.0000
vn -0.2172 0.4348 0.8739
vn 0.4874 0.8732 -0.0000
vn 0.2172 0.4348 0.8739
vn 0.9947 0.1032 -0.0000
vn 0.2172 0.4348 -0.8739
vn -0.4874 0.8732 -0.0000
vn -0.0571 -0.2030 -0.9775
vn -0.0882 0.0799 -0.9929
# 145 vertex normals

vt 0.0762 0.3530 0.0000
vt 0.0762 0.1470 0.0000
vt 0.5000 0.1470 0.0000
vt 0.5000 0.3530 0.0000
vt 0.9238 0.1470 0.0000
vt 0.9238 0.3530 0.0000
vt 0.0762 0.0000 0.0000
vt 0.5000 0.0000 0.0000
vt 0.5000 1.0000 0.0000
vt 0.0762 1.0000 0.0000
vt 0.1470 0.0000 0.0000
vt 0.3530 0.0000 0.0000
vt 0.3530 1.0000 0.0000
vt 0.1470 1.0000 0.0000
vt 0.0762 0.8530 0.0000
vt 0.0762 0.6470 0.0000
vt 0.5000 0.6470 0.0000
vt 0.5000 0.8530 0.0000
vt 0.6470 0.0000 0.0000
vt 0.8530 0.0000 0.0000
vt 0.8530 1.0000 0.0000
vt 0.6470 1.0000 0.0000
vt 0.0000 0.3530 0.0000
vt 0.0000 0.1470 0.0000
vt 1.0000 0.1470 0.0000
vt 1.0000 0.3530 0.0000
vt 0.9238 0.0000 0.0000
vt 1.0000 0.0000 0.0000
vt 1.0000 1.0000 0.0000
vt 0.9238 1.0000 0.0000
vt 0.0000 1.0000 0.0000
vt 0.0000 0.0000 0.0000
vt 0.0000 0.8530 0.0000
vt 0.0000 0.6470 0.0000
vt 1.0000 0.6470 0.0000
vt 1.0000 0.8530 0.0000
vt 0.9238 0.8530 0.0000
vt 0.9238 0.6470 0.0000
vt 0.9238 0.5000 0.0000
vt 0.5000 0.5000 0.0000
vt 0.0762 0.5000 0.0000
vt 0.0000 0.5000 0.0000
vt 1.0000 0.5000 0.0000
# 43 texture coords

g Box001
usemtl 01___Default
s 4
f 1/1/1 2/2/2 3/3/3 4/4/4 
f 5/5/5 6/6/6 7/4/7 8/3/8 
usemtl 02___Default
s 12
f 9/7/9 10/8/10 11/9/11 12/10/12 
s 16
f 13/11/13 14/12/13 15/13/14 16/14/13 
s 36
f 17/7/15 18/8/16 19/9/17 20/10/18 
s 64
f 21/11/19 22/12/19 23/13/19 24/14/19 
usemtl 01___Default
s 4
f 25/15/20 26/16/21 27/17/22 28/18/23 
f 29/15/24 30/16/25 31/17/26 32/18/27 
usemtl 02___Default
s 16
f 33/19/28 34/20/29 35/21/29 36/22/29 
s 64
f 37/19/30 38/20/30 39/21/30 40/22/30 
usemtl 01___Default
s 2
f 14/23/31 13/24/32 2/2/33 1/1/34 
f 38/25/35 37/26/36 41/6/37 42/5/38 
s 4
f 16/25/39 15/26/40 6/6/6 5/5/5 
f 40/23/41 39/24/42 43/2/43 44/1/44 
s 8
f 45/27/45 46/28/45 47/29/45 48/30/45 
f 49/10/46 50/31/46 51/32/47 52/7/46 
s 32
f 53/27/48 54/28/48 55/29/48 56/30/48 
f 57/10/49 58/31/49 59/32/49 60/7/49 
s 2
f 34/33/50 33/34/51 26/16/52 25/15/53 
f 22/35/54 21/36/55 61/37/56 62/38/57 
s 4
f 24/33/58 23/34/59 30/16/25 29/15/24 
f 36/35/60 35/36/61 63/37/62 64/38/63 
f 2/2/2 65/7/9 10/8/10 3/3/3 
f 41/6/64 66/39/65 67/40/66 4/4/4 
f 6/6/6 68/39/67 69/40/68 7/4/7 
f 43/2/43 12/7/12 11/8/11 8/3/8 
usemtl 02___Default
s 16
f 14/12/13 70/8/69 71/9/70 15/13/14 
f 16/14/13 72/31/13 73/32/13 13/11/13 
s 64
f 22/12/19 74/8/71 75/9/72 23/13/19 
f 24/14/19 76/31/19 77/32/73 21/11/19 
usemtl 01___Default
s 4
f 26/16/21 78/41/74 67/40/66 27/17/22 
f 61/37/75 79/30/15 18/9/16 28/18/23 
f 30/16/25 80/41/76 69/40/68 31/17/26 
f 63/37/62 20/30/18 19/9/17 32/18/27 
usemtl 02___Default
s 16
f 34/20/29 81/28/29 82/29/29 35/21/29 
f 36/22/29 71/9/70 70/8/69 33/19/28 
s 64
f 38/20/30 83/28/30 84/29/77 39/21/30 
f 40/22/30 75/9/72 74/8/71 37/19/30 
usemtl 01___Default
s 2
f 13/24/32 73/32/78 65/7/79 2/2/33 
f 1/1/34 78/41/66 70/42/80 14/23/31 
f 37/26/36 74/43/81 66/39/66 41/6/37 
f 42/5/38 9/27/82 83/28/83 38/25/35 
s 4
f 15/26/40 71/43/84 68/39/67 6/6/6 
f 5/5/5 85/27/85 72/28/86 16/25/39 
f 39/24/42 84/32/87 12/7/12 43/2/43 
f 44/1/44 80/41/76 75/42/88 40/23/41 
s 2
f 33/34/51 70/42/80 78/41/66 26/16/52 
f 25/15/53 17/10/89 81/31/90 34/33/50 
f 21/36/55 77/29/91 79/30/92 61/37/56 
f 62/38/57 66/39/66 74/43/81 22/35/54 
s 4
f 23/34/59 75/42/88 80/41/76 30/16/25 
f 29/15/24 86/10/93 76/31/94 24/33/58 
f 35/36/61 82/29/95 20/30/18 63/37/62 
f 64/38/63 68/39/67 71/43/84 36/35/60 
s off
f 65/27/96 73/28/96 87/28/96 88/27/96 
usemtl 02___Default
f 73/28/97 72/29/97 89/29/97 87/28/97 
usemtl 01___Default
f 72/29/98 85/30/98 90/30/98 89/29/98 
f 85/30/99 65/27/99 88/27/99 90/30/99 
f 12/10/100 84/31/100 91/31/100 92/10/100 
usemtl 02___Default
f 84/31/101 83/32/101 93/32/101 91/31/101 
usemtl 01___Default
f 83/32/102 9/7/102 94/7/102 93/32/102 
f 9/7/103 12/10/103 92/10/103 94/7/103 
f 79/27/104 77/28/104 95/28/104 96/27/104 
usemtl 02___Default
f 77/28/105 76/29/105 97/29/105 95/28/105 
usemtl 01___Default
f 76/29/106 86/30/106 98/30/106 97/29/106 
f 86/30/107 79/27/107 96/27/107 98/30/107 
f 20/10/108 82/31/108 99/31/108 100/10/108 
usemtl 02___Default
f 82/31/109 81/32/109 101/32/109 99/31/109 
usemtl 01___Default
f 81/32/110 17/7/110 102/7/110 101/32/110 
f 17/7/111 20/10/111 100/10/111 102/7/111 
f 88/27/112 87/28/112 103/28/112 104/27/112 
f 87/28/113 89/29/113 105/29/113 103/28/113 
f 89/29/114 90/30/114 106/30/114 105/29/114 
f 90/30/115 88/27/115 104/27/115 106/30/115 
f 92/10/116 91/31/116 107/31/116 108/10/116 
f 91/31/117 93/32/117 109/32/117 107/31/117 
f 93/32/118 94/7/118 110/7/118 109/32/118 
f 94/7/119 92/10/119 108/10/119 110/7/119 
f 96/27/120 95/28/120 111/28/120 112/27/120 
f 95/28/121 97/29/121 113/29/121 111/28/121 
f 97/29/122 98/30/122 114/30/122 113/29/122 
f 98/30/123 96/27/123 112/27/123 114/30/123 
f 100/10/124 99/31/124 115/31/124 116/10/124 
f 99/31/125 101/32/125 117/32/125 115/31/125 
f 101/32/126 102/7/126 118/7/126 117/32/126 
f 102/7/127 100/10/127 116/10/127 118/7/127 
f 104/27/128 103/28/128 46/28/128 45/27/128 
f 103/28/129 105/29/129 47/29/129 46/28/129 
f 105/29/130 106/30/130 48/30/130 47/29/130 
f 106/30/131 104/27/131 45/27/131 48/30/131 
f 108/10/132 107/31/132 50/31/132 49/10/132 
f 107/31/133 109/32/133 51/32/133 50/31/133 
f 109/32/134 110/7/134 52/7/134 51/32/134 
f 110/7/135 108/10/135 49/10/135 52/7/135 
f 112/27/136 111/28/136 54/28/136 53/27/136 
f 111/28/137 113/29/137 55/29/137 54/28/137 
f 113/29/138 114/30/138 56/30/138 55/29/138 
f 114/30/139 112/27/139 53/27/139 56/30/139 
f 116/10/140 115/31/140 58/31/140 57/10/140 
f 115/31/141 117/32/141 59/32/141 58/31/141 
f 117/32/142 118/7/142 60/7/142 59/32/142 
f 118/7/143 116/10/143 57/10/143 60/7/143 
s 4
f 3/3/3 42/5/144 41/6/64 4/4/4 
f 7/4/7 44/1/44 43/2/43 8/3/8 
usemtl 02___Default
s 12
f 10/8/10 65/27/9 85/30/85 11/9/11 
s 36
f 18/8/16 79/27/15 86/30/93 19/9/17 
usemtl 01___Default
s 4
f 27/17/22 62/38/145 61/37/75 28/18/23 
f 31/17/26 64/38/63 63/37/62 32/18/27 
f 10/8/10 9/27/9 42/5/144 3/3/3 
f 67/40/66 78/41/74 1/1/1 4/4/4 
f 69/40/68 80/41/76 44/1/44 7/4/7 
f 11/8/11 85/27/85 5/5/5 8/3/8 
f 67/40/66 66/39/65 62/38/145 27/17/22 
f 18/9/16 17/10/15 25/15/20 28/18/23 
f 69/40/68 68/39/67 64/38/63 31/17/26 
f 19/9/17 86/10/93 29/15/24 32/18/27 
# 116 polygons

